<mxfile host="app.diagrams.net" modified="2024-03-01T15:25:14.357Z" agent="Mozilla/5.0 (Windows NT 10.0; Win64; x64) AppleWebKit/537.36 (KHTML, like Gecko) Chrome/122.0.0.0 Safari/537.36" version="23.1.8" etag="lmLaxf8H2SuIdOBuHjVt" type="github">
  <diagram name="第 1 页" id="AEzFgNLI5vTm8FaiKXbX">
    <mxGraphModel>
      <root>
        <mxCell id="0" />
        <mxCell id="1" parent="0" />
      </root>
    </mxGraphModel>
  </diagram>
</mxfile>
